<?xml version="1.0" encoding="utf-8"?>
<!-- Generator: Adobe Illustrator 21.0.0, SVG Export Plug-In . SVG Version: 6.00 Build 0)  -->
<svg version="1.1" xmlns="http://www.w3.org/2000/svg" xmlns:xlink="http://www.w3.org/1999/xlink" x="0px" y="0px"
	 viewBox="0 0 70 45" style="enable-background:new 0 0 70 45;" xml:space="preserve">
<style type="text/css">
	.st0{fill:url(#XMLID_144_);}
	.st1{fill:#96B55C;}
	.st2{fill:#E6E6E6;}
	.st3{fill:#CCCCCC;}
	.st4{fill:#999999;}
	.st5{fill:none;stroke:#999999;stroke-miterlimit:10;}
	.st6{fill:#CCCCCC;stroke:#999999;stroke-miterlimit:10;}
	.st7{fill:#F2F2F2;}
	.st8{fill:#4D4D4D;}
	.st9{fill-rule:evenodd;clip-rule:evenodd;fill:#899A58;}
	.st10{fill-rule:evenodd;clip-rule:evenodd;fill:#566933;}
	.st11{fill:#C44E18;}
	.st12{fill:#2B2929;}
	.st13{fill:#999999;stroke:#FFFFFF;stroke-width:2;stroke-miterlimit:10;}
	.st14{fill:url(#XMLID_145_);}
	.st15{fill:#61B594;}
	.st16{fill:none;stroke:#61B594;stroke-width:2;stroke-miterlimit:10;}
	.st17{fill:#FFFFFF;}
	.st18{fill:url(#XMLID_146_);}
	.st19{fill:none;stroke:#FFFFFF;stroke-width:2;stroke-miterlimit:10;}
	.st20{fill:none;stroke:#C44E18;stroke-miterlimit:10;}
	.st21{fill:none;stroke:#E6E6E6;stroke-miterlimit:10;}
	.st22{fill:#E6E6E6;stroke:#E6E6E6;stroke-miterlimit:10;}
	.st23{display:none;}
	.st24{display:inline;fill:none;stroke:#00A99D;stroke-width:2;stroke-miterlimit:10;}
	.st25{display:inline;fill:none;stroke:#FFFF00;stroke-width:2;stroke-miterlimit:10;}
</style>
<g id="UI">
	<path class="st2" d="M64.3,17c-0.8-2.4,0.2-3.9,0.5-9.4c0.3-5.5-6.3-5.5-10.1-3.3c-5.1,1.9-2.9,9.1-2.9,9.1
		C45.7,14.7,21,19.9,15,21.2c0,0-0.9-7.4-6.3-7.1c-4.4-0.5-10.4,2.2-7.9,7.1c2.5,4.9,4,5.8,4.3,8.4C4.2,32.5-1.7,40.9,9,42
		c0.5,0.1,2.9,0.1,4.7-1.3c2.6-2,3.5-6.2,1.9-10.3c6.5-1.3,32.8-6.9,39.3-8.3c0.2,4.4,2.7,7.9,5.9,8.6c2.3,0.5,4.4-0.5,4.9-0.7
		C75,24.6,66.2,19.3,64.3,17z"/>
</g>
<g id="Notes" class="st23">
</g>
<g id="Gestures" class="st23">
</g>
<g id="Labels" class="st23">
</g>
</svg>
