<?xml version="1.0" encoding="utf-8"?>
<!-- Generator: Adobe Illustrator 21.0.0, SVG Export Plug-In . SVG Version: 6.00 Build 0)  -->
<svg version="1.1" xmlns="http://www.w3.org/2000/svg" xmlns:xlink="http://www.w3.org/1999/xlink" x="0px" y="0px"
	 viewBox="0 0 63 46" style="enable-background:new 0 0 63 46;" xml:space="preserve">
<style type="text/css">
	.st0{fill:url(#XMLID_144_);}
	.st1{fill:#96B55C;}
	.st2{fill:#E6E6E6;}
	.st3{fill:#CCCCCC;}
	.st4{fill:#999999;}
	.st5{fill:none;stroke:#999999;stroke-miterlimit:10;}
	.st6{fill:#CCCCCC;stroke:#999999;stroke-miterlimit:10;}
	.st7{fill:#F2F2F2;}
	.st8{fill:#4D4D4D;}
	.st9{fill-rule:evenodd;clip-rule:evenodd;fill:#899A58;}
	.st10{fill-rule:evenodd;clip-rule:evenodd;fill:#566933;}
	.st11{fill:#C44E18;}
	.st12{fill:#2B2929;}
	.st13{fill:#999999;stroke:#FFFFFF;stroke-width:2;stroke-miterlimit:10;}
	.st14{fill:url(#XMLID_145_);}
	.st15{fill:#61B594;}
	.st16{fill:none;stroke:#61B594;stroke-width:2;stroke-miterlimit:10;}
	.st17{fill:#FFFFFF;}
	.st18{fill:url(#XMLID_146_);}
	.st19{fill:none;stroke:#FFFFFF;stroke-width:2;stroke-miterlimit:10;}
	.st20{fill:none;stroke:#C44E18;stroke-miterlimit:10;}
	.st21{fill:none;stroke:#E6E6E6;stroke-miterlimit:10;}
	.st22{fill:#E6E6E6;stroke:#E6E6E6;stroke-miterlimit:10;}
	.st23{display:none;}
	.st24{display:inline;fill:none;stroke:#00A99D;stroke-width:2;stroke-miterlimit:10;}
	.st25{display:inline;fill:none;stroke:#FFFF00;stroke-width:2;stroke-miterlimit:10;}
</style>
<g id="UI">
	<g>
		<g>
			<path class="st21" d="M62.7,15c0,1.2-2,2.2-4.4,2.2c-1.8,0-3.4-0.5-4-1.3c-1.5,1.3-3.8,2.1-6.3,2.1c-2.1,0-4.1-0.6-5.5-1.5
				c-0.7,0.5-1.7,0.8-2.7,0.8c-2.3,0-4.2-1.5-4.2-3.2c0-1.8,1.9-3.2,4.2-3.2c0,0,0.1,0,0.1,0C40.7,8,44,6,48,6
				c1.9,0,3.8,0.6,4.8,2.3c0.4-1.3,2-1.9,3.1-1.9c2.8,0,5,1.9,5,4.3c0,0.8-0.3,1.6-0.7,2.3C61.6,13.3,62.7,14.1,62.7,15z"/>
			<path class="st21" d="M29.5,35.4c0,2.5-2.5,4.6-5.5,4.6c-1.3,0-2.5-0.4-3.4-1c-1.3,0.8-3,1.3-4.8,1.3c-2,0-3.8-0.6-5.2-1.5
				c-0.8,0.5-1.9,0.8-3,0.8c-1,0-1.9-0.2-2.7-0.7c-0.4,0.4-1.2,0.7-2.1,0.7c-1.4,0-2.5-0.7-2.5-1.5c0-0.8,1.1-1.5,2.5-1.5
				c0.1,0,0.1,0,0.2,0c-0.1-0.3-0.1-0.5-0.1-0.8c0-2,2.1-3.7,4.8-3.7c0,0,0.1,0,0.1,0c0.7-3.2,4-5.5,8.1-5.5c3.4,0,6.4,1.7,7.6,4.2
				c0.2,0,0.4,0,0.6,0C27.1,30.8,29.5,32.9,29.5,35.4z"/>
		</g>
		<path class="st22" d="M48,17.8c-2.1,0-4.1-0.6-5.5-1.5c-0.7,0.5-1.7,0.8-2.7,0.8c-2.3,0-4.2-1.5-4.2-3.2c0-1.8,1.9-3.2,4.2-3.2
			c0,0,0.1,0,0.1,0C40.7,7.9,44,5.9,48,5.9c0.5,0,1,0,1.5,0.1c-0.2-0.3-0.4-0.6-0.6-0.8c-7.4-9.7-18.8,1.5-20.6,3.5
			C26.5,6.7,14.9-4.9,7.8,5C2.1,12.8,5,21.3,10.1,28.5c1.5-1.2,3.5-2,5.7-2c3.4,0,6.4,1.7,7.6,4.2c0.2,0,0.4,0,0.6,0
			c3.1,0,5.5,2,5.5,4.6c0,2.5-2.5,4.6-5.5,4.6c-1.3,0-2.5-0.4-3.4-1c-0.2,0.1-0.4,0.2-0.6,0.3c2.9,2.6,5.5,4.5,6.8,5.4
			c0.3,0.2,0.5,0.3,0.5,0.3l0.4-0.3c3.8-2.9,21.1-14.8,23.9-27.4C50.5,17.6,49.3,17.8,48,17.8z"/>
	</g>
</g>
<g id="Notes" class="st23">
</g>
<g id="Gestures" class="st23">
</g>
<g id="Labels" class="st23">
</g>
</svg>
